<svg xmlns="http://www.w3.org/2000/svg" width="1584" height="396" viewBox="0 0 1584 396" role="img" aria-labelledby="title desc">
  <title id="title">USBAY LinkedIn Enterprise Banner - Light</title>
  <desc id="desc">USBAY AI governance banner with human oversight, audit evidence, provenance, and policy enforcement pillars.</desc>
  <defs>
    <linearGradient id="bg" x1="0" x2="1" y1="0" y2="1">
      <stop offset="0" stop-color="#f7fbff"/>
      <stop offset="0.55" stop-color="#eef5fb"/>
      <stop offset="1" stop-color="#dceaf5"/>
    </linearGradient>
    <filter id="shadow" x="-20%" y="-20%" width="140%" height="140%">
      <feDropShadow dx="0" dy="10" stdDeviation="18" flood-color="#12324f" flood-opacity="0.15"/>
    </filter>
    <pattern id="grid" width="48" height="48" patternUnits="userSpaceOnUse">
      <path d="M48 0H0V48" fill="none" stroke="#375f86" stroke-opacity="0.11" stroke-width="1"/>
    </pattern>
  </defs>

  <rect width="1584" height="396" fill="url(#bg)"/>
  <rect width="1584" height="396" fill="url(#grid)"/>
  <path d="M0 326 C244 286 436 330 650 300 C862 270 1036 204 1262 228 C1398 242 1492 286 1584 268 L1584 396 L0 396 Z" fill="#d5e5f2" opacity="0.68"/>

  <g transform="translate(88 64)">
    <text x="0" y="0" fill="#0f4c81" font-family="Inter, Segoe UI, Arial, sans-serif" font-size="32" font-weight="800" letter-spacing="5">USBAY</text>
    <rect x="0" y="18" width="104" height="4" rx="2" fill="#487a3c"/>
    <text x="0" y="98" fill="#10243a" font-family="Inter, Segoe UI, Arial, sans-serif" font-size="58" font-weight="800">AI Governance That</text>
    <text x="0" y="166" fill="#10243a" font-family="Inter, Segoe UI, Arial, sans-serif" font-size="58" font-weight="800">Fails Closed</text>
    <text x="0" y="236" fill="#0f4c81" font-family="Inter, Segoe UI, Arial, sans-serif" font-size="26" font-weight="650">Built for Enterprise Accountability</text>
  </g>

  <g transform="translate(830 68)" filter="url(#shadow)">
    <rect x="0" y="0" width="628" height="248" rx="18" fill="#ffffff" stroke="#b6c9da"/>
    <text x="42" y="48" fill="#173b5f" font-family="Inter, Segoe UI, Arial, sans-serif" font-size="20" font-weight="750" letter-spacing="1.2">GOVERNANCE CONTROL PILLARS</text>

    <g transform="translate(42 82)">
      <rect x="0" y="0" width="270" height="54" rx="12" fill="#f4f8fb" stroke="#c4d4e1"/>
      <circle cx="28" cy="27" r="10" fill="#487a3c"/>
      <text x="52" y="34" fill="#153149" font-family="Inter, Segoe UI, Arial, sans-serif" font-size="21" font-weight="650">Human Oversight</text>
    </g>
    <g transform="translate(316 82)">
      <rect x="0" y="0" width="270" height="54" rx="12" fill="#f4f8fb" stroke="#c4d4e1"/>
      <circle cx="28" cy="27" r="10" fill="#0f6cae"/>
      <text x="52" y="34" fill="#153149" font-family="Inter, Segoe UI, Arial, sans-serif" font-size="21" font-weight="650">Audit Evidence</text>
    </g>
    <g transform="translate(42 158)">
      <rect x="0" y="0" width="270" height="54" rx="12" fill="#f4f8fb" stroke="#c4d4e1"/>
      <circle cx="28" cy="27" r="10" fill="#0f6cae"/>
      <text x="52" y="34" fill="#153149" font-family="Inter, Segoe UI, Arial, sans-serif" font-size="21" font-weight="650">Provenance</text>
    </g>
    <g transform="translate(316 158)">
      <rect x="0" y="0" width="270" height="54" rx="12" fill="#f4f8fb" stroke="#c4d4e1"/>
      <circle cx="28" cy="27" r="10" fill="#487a3c"/>
      <text x="52" y="34" fill="#153149" font-family="Inter, Segoe UI, Arial, sans-serif" font-size="21" font-weight="650">Policy Enforcement</text>
    </g>
  </g>

  <g transform="translate(92 340)">
    <line x1="0" y1="0" x2="760" y2="0" stroke="#98b1c8" stroke-width="2" opacity="0.85"/>
    <circle cx="0" cy="0" r="5" fill="#487a3c"/>
    <circle cx="252" cy="0" r="5" fill="#0f6cae"/>
    <circle cx="506" cy="0" r="5" fill="#487a3c"/>
    <circle cx="760" cy="0" r="5" fill="#0f6cae"/>
  </g>
</svg>
