<svg xmlns="http://www.w3.org/2000/svg" width="1584" height="396" viewBox="0 0 1584 396" role="img" aria-labelledby="title desc">
  <title id="title">USBAY LinkedIn Enterprise Banner - Dark</title>
  <desc id="desc">USBAY AI governance banner with human oversight, audit evidence, provenance, and policy enforcement pillars.</desc>
  <defs>
    <linearGradient id="bg" x1="0" x2="1" y1="0" y2="1">
      <stop offset="0" stop-color="#07111f"/>
      <stop offset="0.55" stop-color="#0b1d33"/>
      <stop offset="1" stop-color="#102941"/>
    </linearGradient>
    <linearGradient id="panel" x1="0" x2="1" y1="0" y2="1">
      <stop offset="0" stop-color="#102842" stop-opacity="0.98"/>
      <stop offset="1" stop-color="#081524" stop-opacity="0.98"/>
    </linearGradient>
    <filter id="shadow" x="-20%" y="-20%" width="140%" height="140%">
      <feDropShadow dx="0" dy="10" stdDeviation="16" flood-color="#000814" flood-opacity="0.32"/>
    </filter>
    <pattern id="grid" width="48" height="48" patternUnits="userSpaceOnUse">
      <path d="M48 0H0V48" fill="none" stroke="#6b86a8" stroke-opacity="0.09" stroke-width="1"/>
    </pattern>
  </defs>

  <rect width="1584" height="396" fill="url(#bg)"/>
  <rect width="1584" height="396" fill="url(#grid)"/>
  <path d="M0 322 C260 282 420 332 642 300 C842 271 1020 209 1256 230 C1398 243 1494 288 1584 270 L1584 396 L0 396 Z" fill="#08121f" opacity="0.58"/>

  <g transform="translate(88 64)">
    <text x="0" y="0" fill="#7db7ff" font-family="Inter, Segoe UI, Arial, sans-serif" font-size="32" font-weight="800" letter-spacing="5">USBAY</text>
    <rect x="0" y="18" width="104" height="4" rx="2" fill="#7fb069"/>
    <text x="0" y="98" fill="#f8fbff" font-family="Inter, Segoe UI, Arial, sans-serif" font-size="58" font-weight="800">AI Governance That</text>
    <text x="0" y="166" fill="#f8fbff" font-family="Inter, Segoe UI, Arial, sans-serif" font-size="58" font-weight="800">Fails Closed</text>
    <text x="0" y="236" fill="#7db7ff" font-family="Inter, Segoe UI, Arial, sans-serif" font-size="26" font-weight="650">Built for Enterprise Accountability</text>
  </g>

  <g transform="translate(830 68)" filter="url(#shadow)">
    <rect x="0" y="0" width="628" height="248" rx="18" fill="url(#panel)" stroke="#3f638a" stroke-opacity="0.55"/>
    <text x="42" y="48" fill="#cfe1f5" font-family="Inter, Segoe UI, Arial, sans-serif" font-size="20" font-weight="750" letter-spacing="1.2">GOVERNANCE CONTROL PILLARS</text>

    <g transform="translate(42 82)">
      <rect x="0" y="0" width="270" height="54" rx="12" fill="#0d2239" stroke="#385d82"/>
      <circle cx="28" cy="27" r="10" fill="#7fb069"/>
      <text x="52" y="34" fill="#f6f9fc" font-family="Inter, Segoe UI, Arial, sans-serif" font-size="21" font-weight="650">Human Oversight</text>
    </g>
    <g transform="translate(316 82)">
      <rect x="0" y="0" width="270" height="54" rx="12" fill="#0d2239" stroke="#385d82"/>
      <circle cx="28" cy="27" r="10" fill="#7db7ff"/>
      <text x="52" y="34" fill="#f6f9fc" font-family="Inter, Segoe UI, Arial, sans-serif" font-size="21" font-weight="650">Audit Evidence</text>
    </g>
    <g transform="translate(42 158)">
      <rect x="0" y="0" width="270" height="54" rx="12" fill="#0d2239" stroke="#385d82"/>
      <circle cx="28" cy="27" r="10" fill="#7db7ff"/>
      <text x="52" y="34" fill="#f6f9fc" font-family="Inter, Segoe UI, Arial, sans-serif" font-size="21" font-weight="650">Provenance</text>
    </g>
    <g transform="translate(316 158)">
      <rect x="0" y="0" width="270" height="54" rx="12" fill="#0d2239" stroke="#385d82"/>
      <circle cx="28" cy="27" r="10" fill="#7fb069"/>
      <text x="52" y="34" fill="#f6f9fc" font-family="Inter, Segoe UI, Arial, sans-serif" font-size="21" font-weight="650">Policy Enforcement</text>
    </g>
  </g>

  <g transform="translate(92 340)">
    <line x1="0" y1="0" x2="760" y2="0" stroke="#385d82" stroke-width="2" opacity="0.6"/>
    <circle cx="0" cy="0" r="5" fill="#7fb069"/>
    <circle cx="252" cy="0" r="5" fill="#7db7ff"/>
    <circle cx="506" cy="0" r="5" fill="#7fb069"/>
    <circle cx="760" cy="0" r="5" fill="#7db7ff"/>
  </g>
</svg>
